<svg width="20" height="20" viewBox="0 0 20 20" fill="none" xmlns="http://www.w3.org/2000/svg">
<rect x="0.5" y="0.5" width="19" height="19" rx="9.5" stroke="currentColor"/>
<path d="M5 7.5001C5 6.83703 5.2634 6.20112 5.73226 5.73226C6.20112 5.2634 6.83703 5 7.5001 5H12.5003C13.1634 5 13.7993 5.2634 14.2681 5.73226C14.737 6.20112 15.0004 6.83703 15.0004 7.5001V12.5003C15.0004 13.1634 14.737 13.7993 14.2681 14.2681C13.7993 14.737 13.1634 15.0004 12.5003 15.0004H7.5001C6.83703 15.0004 6.20112 14.737 5.73226 14.2681C5.2634 13.7993 5 13.1634 5 12.5003V7.5001Z" stroke="currentColor" stroke-linecap="round" stroke-linejoin="round"/>
<path d="M8.125 10.0001C8.125 10.4974 8.32255 10.9743 8.6742 11.326C9.02584 11.6776 9.50278 11.8752 10.0001 11.8752C10.4974 11.8752 10.9743 11.6776 11.326 11.326C11.6776 10.9743 11.8752 10.4974 11.8752 10.0001C11.8752 9.50278 11.6776 9.02584 11.326 8.6742C10.9743 8.32255 10.4974 8.125 10.0001 8.125C9.50278 8.125 9.02584 8.32255 8.6742 8.6742C8.32255 9.02584 8.125 9.50278 8.125 10.0001Z" stroke="currentColor" stroke-linecap="round" stroke-linejoin="round"/>
<path d="M12.8125 7.1875V7.19375" stroke="currentColor" stroke-linecap="round" stroke-linejoin="round"/>
</svg>
