<svg width="165" height="117" viewBox="0 0 165 117" fill="none" xmlns="http://www.w3.org/2000/svg">
<g clip-path="url(#clip0_2374_41294)">
<path d="M82.4988 116.314C128.062 116.314 164.998 112.277 164.998 107.297C164.998 102.317 128.062 98.2793 82.4988 98.2793C36.936 98.2793 0 102.317 0 107.297C0 112.277 36.936 116.314 82.4988 116.314Z" fill="#E1E1D7"/>
</g>
<path d="M151.476 88.7891C151.503 95.562 148.083 100.832 141.741 103.711L140.819 104.129C136.885 105.915 132.509 106.952 127.912 107.155C127.887 107.155 127.865 107.155 127.842 107.155L102.552 107.395C101.613 107.307 100.636 107.205 99.6206 107.087C94.9352 106.547 90.4612 105.761 86.3302 104.834L90.5998 102.45L86.7347 82.3033L86.0916 78.484L90.0453 78.0615L90.1544 78.0501L97.9255 74.5767L97.3665 73.3405L89.7931 76.7259L86.1053 77.1191L86.5302 70.6716L86.5347 70.6129L86.1144 66.7191L89.8613 62.7326L88.8661 61.8061L84.6919 66.2467L85.1646 70.64L84.8487 75.4422L81.2313 76.4456L67.8296 66.1609L62.533 72.5112L63.126 66.6648L60.7538 59.2207L70.3631 44.5812L68.7635 29.7405L67.4069 29.8851L68.9543 44.2445L60.2448 57.5168L58.7997 52.6332L57.4931 53.0174L59.2655 59.0106L59.2609 59.0174L61.7422 66.8095L60.9765 74.3349L61.006 74.3394L60.8833 74.4863L61.44 82.6242L57.4045 90.753L55.3299 91.614C52.7668 89.3112 50.4151 86.3914 48.4927 82.527C43.5574 72.6038 45.3184 60.4321 44.8458 57.1575C44.4118 54.1224 43.4188 52.3213 43.2711 52.0682C43.2575 52.0456 43.2439 52.0207 43.2325 51.9936C42.2054 49.7925 41.4306 49.0558 40.8875 48.5044C40.8375 48.4546 40.7853 48.4072 40.7262 48.362C39.222 47.2433 31.2759 41.4377 26.0407 39.4806C25.1749 39.1552 24.3069 38.9382 23.4435 38.8072C23.3299 38.7914 23.2117 38.7914 23.1004 38.8049L9.61458 40.5518C8.63524 40.6806 7.78542 39.6253 8.24215 38.8501L30.8124 0.463628C31.2668 -0.313774 32.5893 -0.0674462 32.9483 0.859108L37.9631 13.7902L37.9791 13.7631C38.5403 14.5382 39.197 15.2749 39.965 15.9461C44.1823 19.641 53.0577 23.8874 54.7392 24.6738C54.8028 24.7055 54.8664 24.7281 54.9323 24.7484C55.6526 24.9608 56.6274 25.2795 58.8974 25.1597C59.0292 25.1529 59.1655 25.1484 59.3018 25.1484C59.8426 25.1484 61.7695 25.0761 64.3644 24.1021C67.4387 22.945 77.1844 15.5439 88.1867 15.1461C99.1889 14.7461 106.146 19.8603 112.05 24.5382C117.958 29.2139 126.467 37.7156 134.075 48.6061C141.687 59.4897 144.036 65.4784 145.686 69.5304C148.026 75.266 148.344 74.5451 151.069 85.6795C151.323 86.7168 151.471 87.7609 151.476 88.7891Z" fill="#BDBDAF"/>
<path d="M42.2217 90.4004L44.5167 94.5677L48.5068 92.9812L57.4844 101.515L54.6918 103.896C54.6918 103.896 52.2969 107.072 51.6993 107.666C51.1017 108.26 31.649 107.666 31.649 107.666L29.7539 90.0049L33.544 83.8535L42.224 90.4027L42.2217 90.4004Z" fill="#BDBDAF"/>
<path d="M21.1209 98.2793L17.1309 103.836L21.1209 107.805H23.5159L26.5084 105.125L22.5184 101.554L21.1209 98.2793Z" fill="#BDBDAF"/>
<defs>
<clipPath id="clip0_2374_41294">
<rect width="165" height="18.0328" fill="white" transform="translate(0 98.2793)"/>
</clipPath>
</defs>
</svg>
