<svg width="162" height="133" viewBox="0 0 162 133" fill="none" xmlns="http://www.w3.org/2000/svg">
<path d="M59.5838 8.86874C59.9995 8.59897 67.5996 7.35477 67.9162 7.1263C71.2386 4.73147 69.4466 1.38147 64.6377 0.596959C60.5307 -0.0746925 56.5091 0.28866 52.4764 0.960312C50.5357 1.28237 48.463 1.63747 46.5251 1.50534C42.575 1.23558 38.6717 0.665776 34.7574 0.184059C32.591 -0.0829506 30.3201 -0.198563 28.6905 0.836442C26.5847 2.17699 26.7058 2.26508 24.8368 3.75978C23.9449 4.47272 23.3118 6.02247 23.7962 6.85103C24.9193 8.76689 29.6374 10.2423 43.4504 10.2175C52.0525 9.87346 51.7194 10.2175 59.5838 8.86874Z" fill="#131313"/>
<path d="M85.6814 45.3146C88.2772 41.0507 90.5564 39.1596 89.9481 34.3562C89.2048 28.5068 86.3806 24.2814 80.3935 21.1902C74.3101 18.0494 71.9813 17.8732 67.3211 19.6211C66.9467 19.8303 63.8995 21.1544 63.2113 21.4709C63.2416 22.0793 63.2498 22.1784 63.1122 21.5177C63.1342 21.5067 63.17 21.4902 63.2113 21.4709C63.1452 20.1221 64.717 10.2345 64.7335 10.218C55.7791 12.3789 46.2631 12.5082 40.0806 12.4835C33.8981 12.4587 31.2307 12.1669 26.8595 11.008C26.8595 11.008 29.6479 22.2554 29.1359 23.6511C27.0824 21.2149 23.4792 20.1056 21.3266 18.9495C18.7638 17.5732 15.5239 17.9668 12.507 18.6852C8.43579 19.6569 7.72835 20.1331 4.91787 23.1033C3.26626 24.8457 1.95599 27.8599 1.20726 30.6043C-0.818711 36.5225 -0.0754882 38.3448 1.81835 41.1498C3.79478 43.8887 8.62022 51.4806 8.62022 51.4806C7.6265 54.5333 5.29223 59.5707 5.22066 62.6784C5.09955 67.9388 5.43812 73.3092 6.42909 78.4705C7.99536 86.6239 11.0701 94.3231 15.3395 101.505C16.903 104.134 18.3372 106.837 19.8264 109.51C22.1937 113.762 24.3793 118.131 26.9888 122.23C28.5193 124.636 30.4847 126.901 32.6786 128.715C36.1553 131.592 40.4412 132.293 44.917 132.756C50.7307 133.359 56.192 133.02 61.1468 129.747C62.3993 128.919 63.6572 127.713 64.2821 126.383C68.2074 118.021 71.7859 109.493 75.8213 101.183C78.7447 95.1627 81.5221 89.1509 83.3527 82.6711C84.6024 78.2475 85.3484 73.813 85.5548 69.2628C85.753 64.8916 84.3271 60.8369 82.8434 56.8235C82.4993 55.8958 80.6826 52.444 81.2661 51.6375C82.981 49.2536 84.1647 47.8223 85.6897 45.3173L85.6814 45.3146ZM13.1456 44.1364C13.1456 44.1364 8.0394 38.9229 8.52388 35.5784C8.97531 32.4789 12.4354 26.8689 15.6616 25.6385C19.1107 25.5752 21.6652 27.0203 21.6652 27.0203C23.2865 28.7077 24.894 31.1879 24.894 31.1879C21.467 34.7553 16.7131 40.4231 13.1456 44.1364ZM76.3058 44.1364C73.2861 39.7459 70.3352 35.4545 67.3183 31.0695C71.7749 25.9826 73.6357 26.6074 76.8839 28.0305C77.8776 28.4655 82.0864 33.3405 82.4801 34.4746C84.1895 39.4073 80.1238 40.7286 76.3058 44.1364Z" fill="#131313"/>
<path d="M153.26 55.0865C152.421 60.8423 149.96 66.0531 145.302 70.4023C142.982 72.5714 140.832 75.0406 137.077 75.7755C136.24 75.9379 135.47 76.3123 134.644 76.5298C133.19 76.9096 131.731 77.5015 130.25 77.551C129.078 77.5895 127.902 77.6061 126.73 77.6143C125.554 77.6061 124.382 77.5895 123.209 77.551C121.731 77.5015 120.272 76.9096 118.816 76.5298C117.99 76.3123 117.219 75.9407 116.382 75.7755C112.628 75.0406 110.478 72.5714 108.157 70.4023C103.503 66.0531 101.039 60.8395 100.199 55.0865C99.7342 51.8934 100.45 48.8324 101.73 45.843C102.71 43.5528 104.862 42.0526 107.021 40.5634C108.361 39.6412 109.726 38.7411 111.042 37.7942C112.977 36.3958 112.961 34.3754 113.396 32.5091C113.613 31.5731 113.644 30.6042 113.88 29.671C115.053 24.9888 114.095 20.5707 111.535 16.3509C111.257 15.8912 110.654 15.5691 110.349 15.1177C109.68 14.1212 108.829 13.1302 108.559 12.0484C108.141 10.3831 109.941 8.77001 112.859 8.35161C115.535 7.96898 118.287 7.91668 121.01 7.82309C122.912 7.75703 124.822 7.78456 126.733 7.79832C128.643 7.78456 130.55 7.75703 132.455 7.82309C135.18 7.91668 137.933 7.96623 140.606 8.35161C143.524 8.77001 145.321 10.3831 144.906 12.0484C144.636 13.1302 143.785 14.1212 143.116 15.1177C142.811 15.5719 142.211 15.8912 141.93 16.3509C139.37 20.5707 138.412 24.9888 139.585 29.671C139.819 30.6042 139.852 31.5731 140.069 32.5091C140.504 34.3754 140.49 36.3958 142.423 37.7942C143.736 38.7411 145.104 39.6412 146.444 40.5634C148.603 42.0526 150.752 43.55 151.735 45.843C153.015 48.8324 153.731 51.8934 153.266 55.0865H153.26Z" fill="#131313"/>
<path d="M161.02 106.74C158.672 112.334 155.886 117.691 151.553 122.114C149.753 123.953 148.038 125.885 146.139 127.617C145.156 128.511 143.934 129.326 142.673 129.709C140.658 130.323 138.533 130.642 136.433 130.912C133.674 131.267 130.892 131.663 128.12 131.663C124.186 131.66 116.946 131.085 114.075 128.96C110.822 126.554 105.738 121.313 104.039 119.345C100.585 115.34 98.8201 112.95 96.5464 106.801C95.916 105.092 96.4913 103.701 97.5814 102.427C98.7568 101.053 100.196 100.558 102.021 101.07C102.853 101.304 103.764 101.296 104.645 101.32C104.714 101.32 104.782 101.326 104.851 101.326C102.828 99.1981 100.439 97.3758 98.3356 95.3003C97.3969 94.3699 96.4087 93.3321 95.8857 92.1292C94.7516 89.5197 96.161 87.5323 98.9109 87.5818C99.6486 87.5956 116.869 87.2928 128.643 87.0505C140.419 87.29 157.637 87.5956 158.374 87.5818C161.121 87.5323 162.534 89.5197 161.399 92.1292C160.876 93.3349 159.888 94.3726 158.95 95.3003C156.902 97.3208 154.587 99.099 152.599 101.152C154.138 101.097 155.677 100.974 157.213 101.026C160.612 101.136 162.327 103.622 161.02 106.74Z" fill="#131313"/>
</svg>
