<svg width="162" height="134" viewBox="0 0 162 134" fill="none" xmlns="http://www.w3.org/2000/svg">
<path d="M59.6876 9.5787C60.1032 9.30894 67.7034 8.06473 68.0199 7.83626C71.3424 5.44143 69.5504 2.09143 64.7415 1.30692C60.6345 0.635268 56.6128 0.998621 52.5801 1.67027C50.6395 1.99234 48.5667 2.34743 46.6289 2.2153C42.6788 1.94554 38.7755 1.37574 34.8612 0.894019C32.6948 0.62701 30.4238 0.511398 28.7943 1.5464C26.6885 2.88695 26.8096 2.97504 24.9405 4.46974C24.0486 5.18268 23.4155 6.73244 23.9 7.56099C25.0231 9.47685 29.7412 10.9523 43.5541 10.9275C52.1562 10.5834 51.8232 10.9275 59.6876 9.5787Z" fill="currentColor"/>
<path d="M85.7849 46.0243C88.3807 41.7604 90.6599 39.8693 90.0516 35.0659C89.3084 29.2165 86.4841 24.9911 80.497 21.8999C74.4136 18.7591 72.0849 18.5829 67.4246 20.3309C67.0502 20.5401 64.003 21.8641 63.3148 22.1807C63.3451 22.789 63.3534 22.8881 63.2157 22.2274C63.2378 22.2164 63.2735 22.1999 63.3148 22.1807C63.2488 20.8318 64.8205 10.9443 64.8371 10.9277C55.8826 13.0886 46.3666 13.218 40.1841 13.1932C34.0016 13.1684 31.3342 12.8766 26.963 11.7178C26.963 11.7178 29.7514 22.9652 29.2394 24.3608C27.1859 21.9247 23.5827 20.8153 21.4301 19.6592C18.8673 18.2829 15.6274 18.6765 12.6105 19.3949C8.53931 20.3666 7.83187 20.8429 5.02138 23.813C3.36978 25.5554 2.0595 28.5696 1.31078 31.314C-0.715195 37.2323 0.0280274 39.0545 1.92187 41.8595C3.89829 44.5984 8.72373 52.1903 8.72373 52.1903C7.73002 55.243 5.39575 60.2804 5.32418 63.3881C5.20306 68.6485 5.54164 74.0189 6.5326 79.1802C8.09888 87.3336 11.1736 95.0328 15.443 102.215C17.0065 104.843 18.4407 107.546 19.9299 110.219C22.2972 114.472 24.4828 118.841 27.0923 122.939C28.6228 125.345 30.5883 127.611 32.7821 129.425C36.2588 132.301 40.5447 133.003 45.0205 133.466C50.8342 134.068 56.2955 133.73 61.2503 130.457C62.5028 129.628 63.7608 128.423 64.3856 127.093C68.3109 118.731 71.8894 110.203 75.9248 101.892C78.8482 95.8724 81.6256 89.8606 83.4562 83.3808C84.7059 78.9572 85.4519 74.5227 85.6583 69.9725C85.8565 65.6013 84.4306 61.5466 82.9469 57.5332C82.6028 56.6056 80.7861 53.1537 81.3696 52.3472C83.0846 49.9634 84.2682 48.532 85.7932 46.027L85.7849 46.0243ZM13.2491 44.8461C13.2491 44.8461 8.14292 39.6326 8.62739 36.2881C9.07883 33.1886 12.5389 27.5786 15.7651 26.3482C19.2142 26.2849 21.7687 27.73 21.7687 27.73C23.39 29.4174 24.9976 31.8976 24.9976 31.8976C21.5705 35.465 16.8166 41.1328 13.2491 44.8461ZM76.4093 44.8461C73.3896 40.4556 70.4388 36.1642 67.4218 31.7792C71.8784 26.6923 73.7392 27.3171 76.9874 28.7403C77.9811 29.1752 82.1899 34.0502 82.5836 35.1843C84.293 40.1171 80.2273 41.4383 76.4093 44.8461Z" fill="currentColor"/>
<path d="M153.364 55.7969C152.524 61.5527 150.063 66.7635 145.406 71.1128C143.085 73.2819 140.935 75.751 137.181 76.486C136.344 76.6484 135.573 77.0228 134.747 77.2402C133.294 77.6201 131.835 78.2119 130.354 78.2615C129.182 78.3 128.006 78.3165 126.834 78.3248C125.658 78.3165 124.485 78.3 123.313 78.2615C121.835 78.2119 120.376 77.6201 118.92 77.2402C118.094 77.0228 117.323 76.6511 116.486 76.486C112.732 75.751 110.582 73.2819 108.261 71.1128C103.606 66.7635 101.143 61.55 100.303 55.7969C99.838 52.6038 100.554 49.5428 101.834 46.5534C102.814 44.2632 104.966 42.763 107.124 41.2738C108.465 40.3517 109.83 39.4515 111.146 38.5046C113.081 37.1063 113.065 35.0858 113.5 33.2195C113.717 32.2836 113.747 31.3147 113.984 30.3815C115.157 25.6992 114.199 21.2812 111.639 17.0613C111.361 16.6016 110.758 16.2796 110.452 15.8281C109.783 14.8317 108.933 13.8407 108.663 12.7589C108.245 11.0935 110.045 9.48046 112.963 9.06205C115.638 8.67943 118.391 8.62713 121.113 8.53354C123.016 8.46748 124.926 8.495 126.836 8.50877C128.747 8.495 130.654 8.46748 132.559 8.53354C135.284 8.62713 138.037 8.67668 140.71 9.06205C143.628 9.48046 145.425 11.0935 145.009 12.7589C144.74 13.8407 143.889 14.8317 143.22 15.8281C142.915 16.2823 142.315 16.6016 142.034 17.0613C139.474 21.2812 138.516 25.6992 139.689 30.3815C139.922 31.3147 139.956 32.2836 140.173 33.2195C140.608 35.0858 140.594 37.1063 142.527 38.5046C143.84 39.4515 145.208 40.3517 146.548 41.2738C148.706 42.763 150.856 44.2605 151.839 46.5534C153.119 49.5428 153.835 52.6038 153.369 55.7969H153.364Z" fill="currentColor"/>
<path d="M161.123 107.451C158.775 113.044 155.99 118.401 151.657 122.824C149.857 124.663 148.142 126.595 146.242 128.327C145.26 129.221 144.037 130.036 142.777 130.419C140.762 131.033 138.637 131.352 136.536 131.622C133.778 131.977 130.995 132.373 128.223 132.373C124.29 132.371 117.05 131.795 114.179 129.67C110.925 127.264 105.841 122.023 104.143 120.055C100.688 116.05 98.9238 113.661 96.6501 107.511C96.0198 105.802 96.5951 104.412 97.6851 103.137C98.8605 101.764 100.3 101.268 102.125 101.78C102.957 102.014 103.868 102.006 104.748 102.031C104.817 102.031 104.886 102.036 104.955 102.036C102.932 99.9083 100.542 98.086 98.4394 96.0105C97.5007 95.0801 96.5125 94.0423 95.9895 92.8394C94.8554 90.2299 96.2647 88.2425 99.0147 88.292C99.7524 88.3058 116.973 88.003 128.746 87.7607C140.522 88.0002 157.74 88.3058 158.478 88.292C161.225 88.2425 162.637 90.2299 161.503 92.8394C160.98 94.0451 159.992 95.0828 159.053 96.0105C157.005 98.031 154.69 99.8092 152.703 101.863C154.242 101.808 155.78 101.684 157.316 101.736C160.716 101.846 162.431 104.332 161.123 107.451Z" fill="currentColor"/>
</svg>
