<svg xmlns="http://www.w3.org/2000/svg" width="207" height="62" viewBox="0 0 207 62" fill="none">
  <g clip-path="url(#clip0_2929_46136)">
    <path d="M32.7262 26.0588C33.3484 25.601 36.2807 23.2378 36.917 22.7994C38.955 21.6682 41.2634 20.9364 43.061 21.8732C46.0481 23.4269 47.8369 27.5506 47.289 30.7056C46.8506 33.2244 42.0482 38.306 40.8746 40.238C41.1079 42.4103 41.4897 46.8044 39.6885 51.1596C38.4 54.2793 35.7911 56.0645 33.1327 57.8215C25.0727 63.1488 13.2125 62.8536 7.08095 57.0614C3.82691 53.9877 1.8667 50.8538 0.756688 46.3908C-0.227832 42.4297 2.03639 35.2164 6.0328 31.8015C11.0014 27.5559 10.9413 29.0211 10.8812 24.8851C10.8741 24.4344 10.3597 23.92 9.96734 23.563C9.45829 23.0999 8.62401 22.8913 8.29525 22.3505C6.70269 19.738 6.59311 18.5661 9.74817 17.7884C12.1043 17.2069 14.5877 17.1044 17.0234 16.887C21.5642 16.4805 26.1244 16.2542 30.6529 15.7399C33.6824 15.3952 35.4235 16.1994 35.8265 18.6227C36.028 19.8352 35.0876 20.7296 34.0465 21.4048C33.4933 21.7636 32.4752 22.2409 31.952 22.6456C32.0722 22.8047 32.6078 25.8997 32.728 26.0605L32.7262 26.0588ZM38.9338 36.512C38.9338 36.512 42.3823 31.9235 43.0469 29.76C43.6673 27.7432 43.2183 26.6544 42.4265 26.004C40.9506 24.7932 39.1017 25.4596 38.6227 25.8025C37.1998 26.8223 36.2683 27.6248 34.568 29.0388C34.568 29.0388 37.8856 32.7383 38.932 36.512H38.9338Z" fill="#131313"/>
    <path d="M201.21 46.0303C199.713 48.8018 198.344 51.6634 196.619 54.2882C195.184 56.4711 193.987 59.1666 190.88 59.5378C189.402 59.7145 187.889 59.6315 186.392 59.6315C184.8 59.6297 183.207 59.6244 181.615 59.6191C180.02 59.6244 178.428 59.6297 176.835 59.6315C175.338 59.6315 173.825 59.7145 172.347 59.5378C169.24 59.1666 168.045 56.4711 166.608 54.2882C164.883 51.6634 163.515 48.8018 162.018 46.0303C158.44 39.4073 155.644 32.6235 157.196 24.8109C157.764 21.9493 158.831 19.4995 161.306 17.7849C163.481 16.2755 165.656 14.8119 168.402 14.5663C169.581 14.4602 170.083 13.7991 169.546 12.6927C168.807 11.1708 168.07 9.62421 167.117 8.23669C166.188 6.88276 166.237 5.39802 167.51 4.31099C169.827 2.33134 172.632 2.61061 175.351 2.64243C177.438 2.66894 179.527 2.69369 181.615 2.75732C183.7 2.69369 185.79 2.66894 187.877 2.64243C190.596 2.61061 193.401 2.33134 195.718 4.31099C196.991 5.39802 197.04 6.88276 196.11 8.23669C195.158 9.62421 194.421 11.1708 193.682 12.6927C193.144 13.7991 193.646 14.4602 194.825 14.5663C197.572 14.8119 199.746 16.2755 201.922 17.7849C204.397 19.4995 205.464 21.9493 206.032 24.8109C207.583 32.6235 204.787 39.4073 201.21 46.0303Z" fill="#131313"/>
    <path d="M96.2022 29.1275C96.0749 27.4766 94.2225 25.9601 92.6547 26.4019C91.5094 26.7236 90.4594 27.2274 89.938 28.5071C89.3459 29.9618 88.5682 31.3405 87.7728 32.9489C86.7989 32.4133 87.0817 32.2755 87.0852 31.9414C87.1241 28.5318 87.1895 25.1222 87.2796 21.7127C87.4104 16.9032 87.5624 12.0955 87.7357 7.28952C87.7463 6.99788 87.946 6.61609 88.1811 6.44994C88.6618 6.10881 89.3017 5.97094 89.74 5.59268C90.3269 5.08717 90.9703 4.51272 91.2566 3.82868C91.8204 2.47651 91.1647 1.60511 89.7047 1.40185C87.5571 1.10313 85.4237 0.685991 83.2673 0.459746C81.6907 0.295365 80.114 0.141589 78.5338 0.00195312C76.9537 0.139821 75.3752 0.293597 73.7986 0.459746C71.644 0.684224 69.5105 1.10313 67.3612 1.40185C65.903 1.60511 65.2455 2.47651 65.8111 3.82868C66.0974 4.51272 66.7408 5.08717 67.3259 5.59268C67.766 5.97094 68.4041 6.10881 68.8866 6.44994C69.1217 6.61609 69.3197 6.99788 69.332 7.28952C69.5035 12.0955 69.6573 16.9049 69.7863 21.7127C69.8782 25.1222 69.9418 28.5318 69.9807 31.9414C69.986 32.2772 69.8252 32.7651 69.5759 32.9242C68.6409 33.5269 67.6387 34.02 66.663 34.5556C65.8694 32.9454 65.0917 31.5667 64.4996 30.1138C63.9764 28.8341 62.9282 28.3321 61.7829 28.0086C60.2133 27.5668 58.3609 29.0833 58.2354 30.7342C58.0339 33.3537 58.9407 35.7045 59.8456 38.0854C60.6481 40.1958 61.4877 42.2532 61.2225 44.6907C60.9556 47.1458 61.4647 49.6698 63.0307 51.6954C64.3971 53.4612 65.9207 55.1422 67.5822 56.6304C69.6237 58.4581 72.9455 60.0096 74.9727 60C76.9998 59.9904 77.2585 60 78.4727 60C79.6869 60 79.8863 59.9903 81.9727 60C84.059 60.0097 87.4405 58.4581 89.482 56.6304C91.1435 55.1439 92.6689 53.4612 94.0334 51.6954C95.6012 49.6698 96.1103 47.1458 95.8434 44.6907C95.5782 42.2532 93.7842 38.5891 94.5884 36.4787C95.4952 34.0978 96.4001 31.747 96.1986 29.1275H96.2022ZM63.0413 38.3046C63.0413 38.3046 59.8456 33.3325 60.0984 32.2154C60.3512 31.1001 60.6569 29.7797 61.7228 30.6935C62.7886 31.6073 64.869 36.1729 64.869 36.1729L63.0413 38.3046ZM91.3927 36.6979L89.5668 34.5662C89.5668 34.5662 91.6472 30.0007 92.7131 29.0868C93.7789 28.173 94.0829 29.4934 94.3374 30.6087C94.5902 31.7258 91.3945 36.6979 91.3945 36.6979H91.3927Z" fill="#131313"/>
    <path d="M123.853 13.9193C122.771 13.8875 121.769 13.3678 122.343 12.7898C123.061 12.0687 124.12 11.5897 125.511 11.6268C127.863 11.6886 130.214 11.8035 132.565 11.9096C134.007 11.975 135.207 12.7792 134.886 13.4809C134.868 13.5216 134.849 13.5622 134.829 13.6011C134.674 13.9246 134.205 14.1437 133.677 14.1384C129.951 14.0996 123.865 13.9193 123.853 13.9193Z" fill="#131313"/>
    <path d="M111.422 50.93C111.68 47.2659 112.604 43.7626 114.605 40.6729C116.528 37.7052 118.587 34.8135 120.756 32.0191C122.969 29.1662 123.671 25.7443 124.611 22.4355C125.027 20.9719 124.765 19.2945 124.691 17.7214C124.661 17.0816 124.429 16.3799 124.081 15.8408C123.756 15.337 123.508 14.8474 123.402 14.3613H133.718C132.958 15.4059 132.783 16.6238 132.913 18.0254C133.292 22.0961 133.069 26.7412 135.496 29.898C136.332 30.9868 137.396 32.3343 138.686 33.9404C141.2 37.0689 143.239 39.3756 145.044 42.8417C145.581 43.8722 147.142 48.8567 147.344 50.0126C147.524 51.0396 148.392 55.492 146.735 57.1835C144.66 59.301 143.177 59.3841 140.265 59.4919C136.293 59.6386 132.314 59.6174 128.339 59.651C127.036 59.6616 125.735 59.6068 124.433 59.5962C121.421 59.5679 118.407 59.6174 115.401 59.5008C113.23 59.4159 111.326 57.2348 111.328 55.0307C111.328 53.6644 111.328 52.2928 111.425 50.93H111.422Z" fill="#131313"/>
  </g>
  <defs>
    <clipPath id="clip0_2929_46136">
      <rect width="205.943" height="61.62" fill="white" transform="translate(0.527344)"/>
    </clipPath>
  </defs>
</svg>