<svg width="124" height="101" viewBox="0 0 124 101" fill="none" xmlns="http://www.w3.org/2000/svg">
<path d="M45.9701 6.69871C46.284 6.49496 52.0245 5.55519 52.2636 5.38262C54.7732 3.57376 53.4196 1.04345 49.7874 0.450894C46.6853 -0.0564166 43.6476 0.21803 40.6017 0.725341C39.1359 0.9686 37.5703 1.23681 36.1066 1.13701C33.123 0.933255 30.1748 0.502872 27.2182 0.139023C25.5819 -0.062654 23.8666 -0.149978 22.6358 0.631779C21.0452 1.64432 21.1367 1.71085 19.725 2.83983C19.0513 3.37833 18.5731 4.54888 18.9391 5.1747C19.7874 6.62179 23.351 7.73621 33.7842 7.71749C40.2815 7.4576 40.0299 7.71749 45.9701 6.69871Z" fill="currentColor"/>
<path d="M65.6815 34.2268C67.6422 31.0062 69.3637 29.5779 68.9042 25.9498C68.3428 21.5316 66.2096 18.3401 61.6875 16.0052C57.0926 13.6329 55.3336 13.4999 51.8136 14.8201C51.5309 14.9781 49.2293 15.9782 48.7095 16.2173C48.7323 16.6768 48.7386 16.7516 48.6346 16.2526C48.6512 16.2443 48.6783 16.2319 48.7095 16.2173C48.6596 15.1985 49.8468 7.73025 49.8592 7.71777C43.0958 9.3499 35.9082 9.44762 31.2384 9.42891C26.5686 9.41019 24.5539 9.18981 21.2523 8.31449C21.2523 8.31449 23.3584 16.8099 22.9717 17.864C21.4207 16.0239 18.6991 15.186 17.0732 14.3128C15.1375 13.2732 12.6903 13.5706 10.4116 14.1132C7.33654 14.8471 6.8022 15.2068 4.6794 17.4502C3.43191 18.7663 2.44224 21.043 1.87671 23.1159C0.346457 27.586 0.907826 28.9624 2.33828 31.0811C3.83111 33.1498 7.47585 38.8841 7.47585 38.8841C6.72528 41.1899 4.96216 44.9947 4.9081 47.342C4.81662 51.3153 5.07236 55.3717 5.82085 59.2701C7.00388 65.4285 9.32629 71.2439 12.551 76.6683C13.732 78.6539 14.8152 80.6956 15.9401 82.7145C17.7281 85.9267 19.379 89.2263 21.35 92.3222C22.506 94.1394 23.9905 95.8505 25.6476 97.2206C28.2735 99.3933 31.5108 99.9235 34.8915 100.273C39.2826 100.728 43.4076 100.472 47.1501 98.0003C48.0961 97.3745 49.0463 96.4638 49.5183 95.4596C52.4831 89.1432 55.186 82.702 58.234 76.4251C60.4421 71.878 62.5399 67.3371 63.9226 62.4428C64.8665 59.1017 65.43 55.7522 65.5859 52.3154C65.7356 49.0137 64.6586 45.9511 63.5379 42.9197C63.278 42.219 61.9058 39.6118 62.3466 39.0026C63.6419 37.2021 64.5359 36.1209 65.6878 34.2289L65.6815 34.2268ZM10.894 33.337C10.894 33.337 7.03715 29.3991 7.40308 26.8729C7.74406 24.5318 10.3575 20.2945 12.7943 19.3651C15.3995 19.3173 17.3289 20.4089 17.3289 20.4089C18.5535 21.6834 19.7678 23.5567 19.7678 23.5567C17.1792 26.2512 13.5885 30.5322 10.894 33.337ZM58.6 33.337C56.3191 30.0207 54.0903 26.7793 51.8116 23.4673C55.1777 19.625 56.5832 20.097 59.0366 21.1719C59.7872 21.5004 62.9662 25.1826 63.2635 26.0392C64.5546 29.765 61.4837 30.763 58.6 33.337Z" fill="currentColor"/>
<path d="M118.193 41.6078C117.559 45.9553 115.7 49.8911 112.182 53.1761C110.43 54.8145 108.806 56.6795 105.97 57.2346C105.338 57.3573 104.756 57.64 104.132 57.8043C103.034 58.0912 101.932 58.5382 100.814 58.5757C99.9278 58.6048 99.04 58.6172 98.1543 58.6235C97.2665 58.6172 96.3808 58.6048 95.4951 58.5757C94.3786 58.5382 93.2766 58.0912 92.1768 57.8043C91.553 57.64 90.9709 57.3594 90.3388 57.2346C87.5028 56.6795 85.879 54.8145 84.1263 53.1761C80.6105 49.8911 78.7496 45.9532 78.1155 41.6078C77.7641 39.196 78.3047 36.884 79.2715 34.626C80.0117 32.8962 81.6376 31.763 83.2676 30.6382C84.2802 29.9417 85.3114 29.2618 86.3053 28.5466C87.7669 27.4904 87.7544 25.9643 88.0829 24.5547C88.2472 23.8478 88.27 23.1159 88.4489 22.4111C89.3346 18.8745 88.611 15.5374 86.6774 12.3501C86.4674 12.0029 86.0121 11.7596 85.7813 11.4187C85.2761 10.666 84.6336 9.91751 84.4299 9.10041C84.1138 7.84253 85.4736 6.62415 87.6775 6.30812C89.6984 6.01912 91.7776 5.97962 93.8338 5.90893C95.2705 5.85903 96.7135 5.87982 98.1564 5.89021C99.5993 5.87982 101.04 5.85903 102.479 5.90893C104.537 5.97962 106.616 6.01704 108.635 6.30812C110.839 6.62415 112.197 7.84253 111.883 9.10041C111.679 9.91751 111.037 10.666 110.531 11.4187C110.301 11.7617 109.847 12.0029 109.635 12.3501C107.702 15.5374 106.978 18.8745 107.864 22.4111C108.041 23.1159 108.066 23.8478 108.23 24.5547C108.558 25.9643 108.548 27.4904 110.008 28.5466C110.999 29.2618 112.033 29.9417 113.045 30.6382C114.675 31.763 116.299 32.8941 117.041 34.626C118.008 36.884 118.549 39.196 118.197 41.6078H118.193Z" fill="currentColor"/>
<path d="M122.213 80.6228C120.439 84.8476 118.335 88.8937 115.063 92.2348C113.703 93.6237 112.408 95.0833 110.973 96.391C110.231 97.0668 109.308 97.6822 108.355 97.9712C106.833 98.4348 105.228 98.676 103.642 98.8798C101.559 99.148 99.4567 99.4474 97.363 99.4474C94.3919 99.4453 88.9237 99.0108 86.7552 97.4057C84.2976 95.5885 80.4574 91.6298 79.1746 90.1432C76.5653 87.1181 75.2325 85.3134 73.5152 80.6686C73.039 79.3774 73.4736 78.3275 74.2969 77.3648C75.1847 76.3273 76.2721 75.9531 77.6506 76.3398C78.2785 76.5165 78.9667 76.5103 79.632 76.529C79.684 76.529 79.736 76.5332 79.788 76.5332C78.2598 74.926 76.4551 73.5496 74.8666 71.9819C74.1576 71.2792 73.4112 70.4953 73.0162 69.5868C72.1596 67.6157 73.2241 66.1146 75.3012 66.152C75.8584 66.1624 88.8655 65.9337 97.758 65.7507C106.653 65.9316 119.658 66.1624 120.215 66.152C122.29 66.1146 123.356 67.6157 122.5 69.5868C122.105 70.4974 121.358 71.2812 120.649 71.9819C119.103 73.508 117.354 74.8511 115.853 76.4022C117.015 76.3606 118.177 76.267 119.337 76.3065C121.905 76.3897 123.201 78.2672 122.213 80.6228Z" fill="currentColor"/>
</svg>
