<svg width="162" height="133" viewBox="0 0 162 133" fill="none" xmlns="http://www.w3.org/2000/svg">
<path d="M59.5838 8.86874C59.9995 8.59897 67.5996 7.35477 67.9162 7.1263C71.2386 4.73147 69.4466 1.38147 64.6377 0.596959C60.5307 -0.0746925 56.5091 0.28866 52.4764 0.960312C50.5357 1.28237 48.463 1.63747 46.5251 1.50534C42.575 1.23558 38.6717 0.665776 34.7574 0.184059C32.591 -0.0829506 30.3201 -0.198563 28.6905 0.836442C26.5847 2.17699 26.7058 2.26508 24.8368 3.75978C23.9449 4.47272 23.3118 6.02247 23.7962 6.85103C24.9193 8.76689 29.6374 10.2423 43.4504 10.2175C52.0525 9.87346 51.7194 10.2175 59.5838 8.86874Z" fill="currentColor"/>
<path d="M85.6814 45.3146C88.2772 41.0507 90.5564 39.1596 89.9481 34.3562C89.2048 28.5068 86.3806 24.2814 80.3935 21.1902C74.3101 18.0494 71.9813 17.8732 67.3211 19.6211C66.9467 19.8303 63.8995 21.1544 63.2113 21.4709C63.2416 22.0793 63.2498 22.1784 63.1122 21.5177C63.1342 21.5067 63.17 21.4902 63.2113 21.4709C63.1452 20.1221 64.717 10.2345 64.7335 10.218C55.7791 12.3789 46.2631 12.5082 40.0806 12.4835C33.8981 12.4587 31.2307 12.1669 26.8595 11.008C26.8595 11.008 29.6479 22.2554 29.1359 23.6511C27.0824 21.2149 23.4792 20.1056 21.3266 18.9495C18.7638 17.5732 15.5239 17.9668 12.507 18.6852C8.43579 19.6569 7.72835 20.1331 4.91787 23.1033C3.26626 24.8457 1.95599 27.8599 1.20726 30.6043C-0.818711 36.5225 -0.0754882 38.3448 1.81835 41.1498C3.79478 43.8887 8.62022 51.4806 8.62022 51.4806C7.6265 54.5333 5.29223 59.5707 5.22066 62.6784C5.09955 67.9388 5.43812 73.3092 6.42909 78.4705C7.99536 86.6239 11.0701 94.3231 15.3395 101.505C16.903 104.134 18.3372 106.837 19.8264 109.51C22.1937 113.762 24.3793 118.131 26.9888 122.23C28.5193 124.636 30.4847 126.901 32.6786 128.715C36.1553 131.592 40.4412 132.293 44.917 132.756C50.7307 133.359 56.192 133.02 61.1468 129.747C62.3993 128.919 63.6572 127.713 64.2821 126.383C68.2074 118.021 71.7859 109.493 75.8213 101.183C78.7447 95.1627 81.5221 89.1509 83.3527 82.6711C84.6024 78.2475 85.3484 73.813 85.5548 69.2628C85.753 64.8916 84.3271 60.8369 82.8434 56.8235C82.4993 55.8958 80.6826 52.444 81.2661 51.6375C82.981 49.2536 84.1647 47.8223 85.6897 45.3173L85.6814 45.3146ZM13.1456 44.1364C13.1456 44.1364 8.0394 38.9229 8.52388 35.5784C8.97531 32.4789 12.4354 26.8689 15.6616 25.6385C19.1107 25.5752 21.6652 27.0203 21.6652 27.0203C23.2865 28.7077 24.894 31.1879 24.894 31.1879C21.467 34.7553 16.7131 40.4231 13.1456 44.1364ZM76.3058 44.1364C73.2861 39.7459 70.3352 35.4545 67.3183 31.0695C71.7749 25.9826 73.6357 26.6074 76.8839 28.0305C77.8776 28.4655 82.0864 33.3405 82.4801 34.4746C84.1895 39.4073 80.1238 40.7286 76.3058 44.1364Z" fill="currentColor"/>
<path d="M155.203 55.0865C154.364 60.8423 151.903 66.0531 147.245 70.4023C144.925 72.5714 142.775 75.0406 139.02 75.7755C138.183 75.9379 137.413 76.3123 136.587 76.5298C135.133 76.9096 133.674 77.5015 132.194 77.551C131.021 77.5895 129.846 77.6061 128.673 77.6143C127.497 77.6061 126.325 77.5895 125.152 77.551C123.674 77.5015 122.215 76.9096 120.759 76.5298C119.933 76.3123 119.162 75.9407 118.326 75.7755C114.571 75.0406 112.421 72.5714 110.101 70.4023C105.446 66.0531 102.982 60.8395 102.143 55.0865C101.677 51.8934 102.393 48.8324 103.673 45.843C104.653 43.5528 106.806 42.0526 108.964 40.5634C110.304 39.6412 111.67 38.7411 112.985 37.7942C114.92 36.3958 114.904 34.3754 115.339 32.5091C115.556 31.5731 115.587 30.6042 115.823 29.671C116.996 24.9888 116.038 20.5707 113.478 16.3509C113.2 15.8912 112.597 15.5691 112.292 15.1177C111.623 14.1212 110.772 13.1302 110.502 12.0484C110.084 10.3831 111.884 8.77001 114.802 8.35161C117.478 7.96898 120.23 7.91668 122.953 7.82309C124.855 7.75703 126.765 7.78456 128.676 7.79832C130.586 7.78456 132.494 7.75703 134.398 7.82309C137.124 7.91668 139.876 7.96623 142.549 8.35161C145.467 8.77001 147.264 10.3831 146.849 12.0484C146.579 13.1302 145.728 14.1212 145.06 15.1177C144.754 15.5719 144.154 15.8912 143.873 16.3509C141.313 20.5707 140.355 24.9888 141.528 29.671C141.762 30.6042 141.795 31.5731 142.012 32.5091C142.447 34.3754 142.433 36.3958 144.366 37.7942C145.679 38.7411 147.047 39.6412 148.388 40.5634C150.546 42.0526 152.695 43.55 153.678 45.843C154.958 48.8324 155.674 51.8934 155.209 55.0865H155.203Z" fill="currentColor"/>
<path d="M160.528 106.74C158.18 112.334 155.394 117.691 151.061 122.114C149.261 123.953 147.546 125.885 145.647 127.617C144.664 128.511 143.442 129.326 142.181 129.709C140.166 130.323 138.041 130.642 135.941 130.912C133.183 131.267 130.4 131.663 127.628 131.663C123.694 131.66 116.455 131.085 113.583 128.96C110.33 126.554 105.246 121.313 103.547 119.345C100.093 115.34 98.3281 112.95 96.0544 106.801C95.4241 105.092 95.9994 103.701 97.0894 102.427C98.2648 101.053 99.7045 100.558 101.529 101.07C102.361 101.304 103.272 101.296 104.153 101.32C104.222 101.32 104.29 101.326 104.359 101.326C102.336 99.1981 99.9467 97.3758 97.8437 95.3003C96.905 94.3699 95.9168 93.3321 95.3938 92.1292C94.2597 89.5197 95.669 87.5323 98.419 87.5818C99.1567 87.5956 116.377 87.2928 128.151 87.0505C139.927 87.29 157.145 87.5956 157.882 87.5818C160.629 87.5323 162.042 89.5197 160.907 92.1292C160.384 93.3349 159.396 94.3726 158.458 95.3003C156.41 97.3208 154.095 99.099 152.107 101.152C153.646 101.097 155.185 100.974 156.721 101.026C160.12 101.136 161.835 103.622 160.528 106.74Z" fill="currentColor"/>
</svg>
