<svg width="75" height="19" viewBox="0 0 75 19" fill="none" xmlns="http://www.w3.org/2000/svg">
<path d="M0 15.5961C0.999609 15.2723 1.09257 14.8774 1.09257 9.5416C1.09257 4.20583 0.999609 3.77481 0 3.45101V3.41492C0.499805 3.43296 0.851965 3.45101 1.72143 3.45101C2.53621 3.45101 2.92446 3.41492 4.20186 3.41492C6.60792 3.41492 7.60753 4.45744 7.60753 6.23568C7.60753 8.26552 6.07093 9.5777 4.03562 9.5777C3.3138 9.5777 2.79541 9.5777 2.36997 9.5416C2.36997 14.8774 2.46293 15.2734 3.46254 15.5961V15.6322H0V15.5961ZM3.86829 8.71565C5.33052 8.71565 6.25576 7.83556 6.25576 6.45225C6.25576 4.9787 5.51535 4.31412 3.8497 4.31412C3.53472 4.31412 3.01633 4.35022 2.5723 4.38631C2.40606 5.23031 2.38747 6.39811 2.36888 8.60843C2.97914 8.68062 3.47895 8.71671 3.86829 8.71671V8.71565Z" fill="#221D1D"/>
<path d="M8.14355 15.5961C9.14316 15.2723 9.23613 14.8774 9.23613 9.5416C9.23613 4.20583 9.14316 3.77481 8.14355 3.45101V3.41492C8.64336 3.43296 8.99552 3.45101 9.86498 3.45101C10.7344 3.45101 11.1971 3.41492 12.6232 3.41492C15.0479 3.41492 16.0475 4.42135 16.0475 6.14544C16.0475 7.70816 14.9735 8.84092 13.4938 9.19976C17.011 14.751 17.5655 15.2182 18.6023 15.4698V15.5059C18.0653 15.56 17.5469 15.6853 16.8622 15.6853C16.3438 15.6853 16.1218 15.3976 15.7336 14.8944C14.9188 13.7446 13.6239 11.5162 12.235 9.30698C11.5131 9.30698 10.9761 9.28893 10.5135 9.27089V9.54054C10.5135 14.8763 10.6065 15.2723 11.6061 15.595V15.6311H8.14465V15.595L8.14355 15.5961ZM12.3268 8.42795C13.7333 8.42795 14.641 7.61898 14.641 6.38006C14.641 4.96065 13.9006 4.31412 12.2535 4.31412C11.7909 4.31412 11.3655 4.31412 10.6809 4.36826C10.5693 5.24836 10.5332 6.45225 10.5146 8.32072C11.255 8.39291 11.9025 8.42901 12.3279 8.42901L12.3268 8.42795Z" fill="#221D1D"/>
<path d="M18.0444 9.54155C18.0444 5.60714 20.8027 3.21741 24.3374 3.21741C27.8721 3.21741 30.6117 5.58909 30.6117 9.52351C30.6117 13.4579 27.8535 15.8477 24.3374 15.8477C20.8212 15.8477 18.0444 13.476 18.0444 9.54155ZM29.132 9.82926C29.132 6.21758 27.0037 4.18774 24.0793 4.18774C21.5256 4.18774 19.5263 6.07426 19.5263 9.2358C19.5263 12.8475 21.6546 14.8773 24.5977 14.8773C27.17 14.8773 29.132 13.0088 29.132 9.8282V9.82926Z" fill="#221D1D"/>
<path d="M30.9443 15.5961C31.9068 15.2553 31.9811 14.8594 32.517 9.61382C32.7576 7.31432 32.9982 5.82273 33.1645 3.02002H34.0164C34.9045 4.83435 37.7557 10.6022 39.0878 13.2435C40.4023 10.5842 43.2524 4.79932 44.0486 3.02002H44.789C45.0482 5.71551 45.1773 7.18799 45.4365 9.57773C46.0293 14.8243 46.1583 15.2553 47.1021 15.5961V15.6322H43.7522V15.5961C44.345 15.4348 44.5484 15.2723 44.5484 14.2309C44.5484 13.458 44.4194 12.201 44.2149 10.0809C44.0486 8.10418 43.9185 6.72087 43.8266 5.75054C42.3644 8.62544 39.8839 13.7637 38.9587 15.8297H38.8472C37.9963 13.7096 35.5159 8.67852 34.0536 5.78663C33.9607 6.75697 33.8502 8.14028 33.6654 10.1521C33.4805 12.1288 33.369 13.3497 33.369 14.1226C33.369 15.2543 33.6096 15.4337 34.2385 15.5961V15.6322H30.9443V15.5961Z" fill="#221D1D"/>
<path d="M47.5088 15.5961C48.4898 15.2373 48.6014 14.8233 48.6014 9.54165C48.6014 4.26002 48.4898 3.80989 47.5088 3.45106V3.43301C52.5801 3.43301 53.7646 3.41496 54.0423 3.30774H54.0795L54.1539 4.87046H54.1167C53.3577 4.51163 52.6545 4.3853 51.5444 4.3853C50.9702 4.3853 50.489 4.3853 50.0636 4.40334C49.9706 5.12207 49.9159 6.25377 49.8974 8.0681H50.8598C51.7117 8.0681 52.7289 8.03201 53.8947 7.90673L53.9505 9.14672C52.322 9.0034 51.0632 9.0034 50.0636 9.0034C50.0078 9.0034 49.952 9.02145 49.8788 9.02145V9.54271C49.8788 12.2382 49.9159 13.6926 50.045 14.5738C50.489 14.5918 51.0074 14.6099 51.6177 14.6099C52.8021 14.6099 53.5425 14.4485 54.3573 14.0525H54.3945L54.3201 15.7416H54.2829C53.9133 15.5983 51.0993 15.6163 48.9896 15.6333H47.5088V15.5972V15.5961Z" fill="#221D1D"/>
<path d="M55.3743 13.5122H55.4115C56.1519 14.4284 56.8179 14.8233 57.7431 14.8233C59.1682 14.8233 60.1306 13.9793 60.1306 12.6852C60.1306 11.9484 59.668 11.1755 58.7613 10.2774L57.1701 8.73271C56.2448 7.85262 55.7822 6.98951 55.7822 6.12747C55.7822 4.29509 57.356 3.25256 59.3355 3.25256C59.8725 3.25256 60.5014 3.35979 60.8349 3.43198L61.1313 5.47987H61.0941C60.4281 4.54563 59.8725 4.1868 59.1321 4.1868C57.8361 4.1868 57.041 4.81529 57.041 5.83976C57.041 6.4502 57.4479 7.0617 58.244 7.83457L59.9469 9.45144C60.9465 10.4218 61.4463 11.4282 61.4463 12.4516C61.4463 14.698 59.8178 15.8297 57.5966 15.8297C56.9863 15.8297 56.0414 15.6864 55.6346 15.6323L55.3754 13.5122H55.3743Z" fill="#221D1D"/>
<path d="M61.6301 15.5961C62.3334 15.3084 62.5368 15.0207 65.073 9.46941C66.5724 6.21763 67.1641 4.90545 67.4233 4.29501C67.0897 3.91813 66.72 3.66652 66.2946 3.45101V3.41492H68.5902C68.6646 3.77375 68.8308 4.20583 71.2555 9.46941C73.8092 15.0207 73.9579 15.2362 74.6983 15.5961V15.6322H71.3484V15.5961C71.7006 15.4347 71.9226 15.3084 71.9226 14.8593C71.9226 14.2128 71.4786 12.9728 70.2755 10.2784C69.6281 10.2603 68.9249 10.2603 68.1287 10.2603C67.222 10.2603 66.4444 10.2603 65.7598 10.2784C64.6126 12.8656 64.2046 14.1236 64.2046 14.7882C64.2046 15.2914 64.4452 15.4528 64.7788 15.5972V15.6332H61.6323V15.5972L61.6301 15.5961ZM68.1276 9.43437H69.8862C69.8676 9.39828 69.849 9.36218 69.849 9.32609C68.997 7.51176 68.553 6.34396 68.0171 5.19421C67.6289 6.16455 67.0733 7.40453 66.1852 9.32609C66.1666 9.36218 66.1481 9.39828 66.1295 9.41633C66.7222 9.43438 67.3883 9.43437 68.1287 9.43437H68.1276Z" fill="#221D1D"/>
</svg>
