<svg width="100" height="30" viewBox="0 0 100 30" fill="none" xmlns="http://www.w3.org/2000/svg">
<path d="M2.26709 22.9263C3.54461 22.5098 3.66342 22.0018 3.66342 15.1385C3.66342 8.27527 3.54461 7.72086 2.26709 7.30436V7.25793C2.90585 7.28115 3.35592 7.30436 4.46712 7.30436C5.50842 7.30436 6.00462 7.25793 7.63717 7.25793C10.7122 7.25793 11.9897 8.59891 11.9897 10.8862C11.9897 13.4971 10.0259 15.185 7.42471 15.185C6.50221 15.185 5.83969 15.185 5.29597 15.1385C5.29597 22.0018 5.41478 22.5111 6.6923 22.9263V22.9727H2.26709V22.9263ZM7.21086 14.0761C9.07962 14.0761 10.2621 12.9441 10.2621 11.1648C10.2621 9.26939 9.31584 8.41456 7.1871 8.41456C6.78455 8.41456 6.12203 8.46099 5.55455 8.50741C5.34209 9.59303 5.31833 11.0951 5.29457 13.9382C6.07451 14.0311 6.71327 14.0775 7.21086 14.0775V14.0761Z" fill="currentColor"/>
<path d="M12.6746 22.9263C13.9521 22.5098 14.0709 22.0018 14.0709 15.1385C14.0709 8.27527 13.9521 7.72086 12.6746 7.30436V7.25793C13.3133 7.28115 13.7634 7.30436 14.8746 7.30436C15.9858 7.30436 16.577 7.25793 18.3997 7.25793C21.4984 7.25793 22.776 8.55248 22.776 10.7701C22.776 12.7802 21.4034 14.2373 19.5123 14.6988C24.0074 21.8393 24.716 22.4401 26.041 22.7638V22.8102C25.3548 22.8798 24.6922 23.041 23.8173 23.041C23.1547 23.041 22.871 22.6709 22.3748 22.0236C21.3335 20.5447 19.6786 17.6785 17.9035 14.8367C16.981 14.8367 16.2947 14.8135 15.7034 14.7903V15.1372C15.7034 22.0004 15.8222 22.5098 17.0998 22.9249V22.9713H12.676V22.9249L12.6746 22.9263ZM18.0209 13.7061C19.8184 13.7061 20.9785 12.6655 20.9785 11.0719C20.9785 9.24618 20.0322 8.41456 17.9272 8.41456C17.336 8.41456 16.7923 8.41456 15.9173 8.4842C15.7747 9.61624 15.7286 11.1648 15.7048 13.5681C16.6511 13.661 17.4786 13.7074 18.0223 13.7074L18.0209 13.7061Z" fill="currentColor"/>
<path d="M25.3281 15.1386C25.3281 10.0779 28.8532 7.00403 33.3707 7.00403C37.8881 7.00403 41.3894 10.0547 41.3894 15.1154C41.3894 20.1761 37.8644 23.25 33.3707 23.25C28.877 23.25 25.3281 20.1994 25.3281 15.1386ZM39.4983 15.5087C39.4983 10.8631 36.7783 8.25214 33.0408 8.25214C29.7771 8.25214 27.222 10.6787 27.222 14.7453C27.222 19.3909 29.942 22.0019 33.7033 22.0019C36.9908 22.0019 39.4983 19.5985 39.4983 15.5073V15.5087Z" fill="currentColor"/>
<path d="M41.8145 22.9263C43.0445 22.488 43.1395 21.9786 43.8244 15.2314C44.1319 12.2737 44.4394 10.3551 44.6518 6.75H45.7407C46.8756 9.08373 50.5195 16.5028 52.2219 19.9003C53.902 16.4796 57.5445 9.03866 58.5621 6.75H59.5083C59.8396 10.2171 60.0045 12.1112 60.3358 15.185C61.0933 21.9336 61.2583 22.488 62.4645 22.9263V22.9727H58.1833V22.9263C58.9408 22.7188 59.2008 22.5098 59.2008 21.1702C59.2008 20.1761 59.0359 18.5593 58.7745 15.8323C58.5621 13.2896 58.3957 11.5103 58.2783 10.2622C56.4095 13.9601 53.2395 20.5694 52.057 23.2267H51.9144C50.827 20.4997 47.657 14.0284 45.7882 10.3086C45.6694 11.5567 45.5282 13.3361 45.292 15.9238C45.0558 18.4664 44.9132 20.0368 44.9132 21.0309C44.9132 22.4866 45.2207 22.7174 46.0244 22.9263V22.9727H41.8145V22.9263Z" fill="currentColor"/>
<path d="M62.9841 22.9263C64.2379 22.4647 64.3805 21.9321 64.3805 15.1385C64.3805 8.34489 64.2379 7.7659 62.9841 7.30434V7.28113C69.4654 7.28113 70.9791 7.25792 71.3342 7.12H71.3817L71.4767 9.13009H71.4292C70.4592 8.66853 69.5604 8.50603 68.1418 8.50603C67.4079 8.50603 66.7929 8.50603 66.2492 8.52924C66.1304 9.45372 66.0605 10.9094 66.0368 13.2431H67.2668C68.3556 13.2431 69.6555 13.1967 71.1455 13.0356L71.2168 14.6305C69.1355 14.4462 67.5268 14.4462 66.2492 14.4462C66.1779 14.4462 66.1067 14.4694 66.013 14.4694V15.1399C66.013 18.607 66.0605 20.4778 66.2255 21.6112C66.7929 21.6344 67.4555 21.6577 68.2354 21.6577C69.7491 21.6577 70.6954 21.4501 71.7367 20.9407H71.7842L71.6892 23.1133H71.6417C71.1692 22.929 67.5729 22.9522 64.8767 22.974H62.9841V22.9276V22.9263Z" fill="currentColor"/>
<path d="M73.0366 20.2458H73.0841C74.0304 21.4242 74.8816 21.9322 76.0641 21.9322C77.8853 21.9322 79.1153 20.8466 79.1153 19.182C79.1153 18.2343 78.5241 17.2402 77.3654 16.0849L75.3317 14.098C74.1492 12.966 73.558 11.8558 73.558 10.747C73.558 8.39004 75.5693 7.04907 78.0992 7.04907C78.7855 7.04907 79.5892 7.18699 80.0155 7.27985L80.3943 9.914H80.3467C79.4955 8.71231 78.7855 8.25076 77.8392 8.25076C76.1829 8.25076 75.1668 9.05916 75.1668 10.3769C75.1668 11.1621 75.6867 11.9487 76.7043 12.9428L78.8805 15.0225C80.1581 16.2706 80.7968 17.5652 80.7968 18.8816C80.7968 21.7711 78.7156 23.2268 75.8768 23.2268C75.0969 23.2268 73.8892 23.0424 73.3693 22.9728L73.038 20.2458H73.0366Z" fill="currentColor"/>
<path d="M81.0317 22.9263C81.9305 22.5562 82.1905 22.1861 85.4318 15.0457C87.3481 10.863 88.1042 9.17517 88.4355 8.38998C88.0092 7.90521 87.5368 7.58157 86.9931 7.30436V7.25793H89.9269C90.0219 7.71949 90.2344 8.27527 93.3332 15.0457C96.5969 22.1861 96.7869 22.4633 97.7332 22.9263V22.9727H93.452V22.9263C93.902 22.7187 94.1858 22.5562 94.1858 21.9786C94.1858 21.147 93.6183 19.552 92.0808 16.0862C91.2533 16.063 90.3546 16.063 89.337 16.063C88.1783 16.063 87.1845 16.063 86.3096 16.0862C84.8433 19.4141 84.322 21.0322 84.322 21.8871C84.322 22.5344 84.6295 22.7419 85.0558 22.9276V22.9741H81.0345V22.9276L81.0317 22.9263ZM89.3356 15.0006H91.5832C91.5594 14.9542 91.5357 14.9078 91.5357 14.8613C90.4468 12.5276 89.8794 11.0255 89.1945 9.5466C88.6983 10.7947 87.9882 12.3897 86.8533 14.8613C86.8295 14.9078 86.8058 14.9542 86.782 14.9774C87.5396 15.0006 88.3908 15.0006 89.337 15.0006H89.3356Z" fill="currentColor"/>
</svg>
