<svg width="167" height="43" viewBox="0 0 167 43" fill="none" xmlns="http://www.w3.org/2000/svg">
<path d="M0 35.2972C2.2258 34.5644 2.43279 33.6706 2.43279 21.5949C2.43279 9.51922 2.2258 8.54374 0 7.81094V7.72925C1.1129 7.77009 1.89704 7.81094 3.83305 7.81094C5.64729 7.81094 6.51179 7.72925 9.35614 7.72925C14.7136 7.72925 16.9394 10.0886 16.9394 14.1131C16.9394 18.7069 13.5179 21.6766 8.98598 21.6766C7.37874 21.6766 6.22444 21.6766 5.27714 21.5949C5.27714 33.6706 5.48413 34.5668 7.70993 35.2972V35.3789H0V35.2972ZM8.61339 19.7256C11.8693 19.7256 13.9295 17.7339 13.9295 14.6032C13.9295 11.2683 12.2808 9.76429 8.572 9.76429C7.87065 9.76429 6.71635 9.84598 5.72765 9.92767C5.3575 11.8378 5.3161 14.4807 5.2747 19.483C6.63356 19.6464 7.74645 19.728 8.61339 19.728V19.7256Z" fill="currentColor"/>
<path d="M18.1331 35.2972C20.3589 34.5644 20.5658 33.6706 20.5658 21.5949C20.5658 9.51922 20.3589 8.54374 18.1331 7.81094V7.72925C19.246 7.77009 20.0301 7.81094 21.9661 7.81094C23.9021 7.81094 24.9322 7.72925 28.1077 7.72925C33.5066 7.72925 35.7324 10.007 35.7324 13.9088C35.7324 17.4455 33.341 20.0092 30.0462 20.8213C37.8779 33.3847 39.1125 34.4418 41.4211 35.0113V35.093C40.2254 35.2155 39.0711 35.499 37.5467 35.499C36.3924 35.499 35.898 34.8479 35.0335 33.709C33.2193 31.107 30.336 26.0638 27.2432 21.0639C25.636 21.0639 24.4403 21.0231 23.4102 20.9822V21.5925C23.4102 33.6682 23.6172 34.5644 25.843 35.2948V35.3765H18.1355V35.2948L18.1331 35.2972ZM27.4478 19.0745C30.5795 19.0745 32.6007 17.2437 32.6007 14.4398C32.6007 11.2275 30.9521 9.76429 27.2846 9.76429C26.2545 9.76429 25.3072 9.76429 23.7828 9.88682C23.5344 11.8786 23.454 14.6032 23.4126 18.8319C25.0613 18.9952 26.5029 19.0769 27.4502 19.0769L27.4478 19.0745Z" fill="currentColor"/>
<path d="M40.179 21.5948C40.179 12.6906 46.3206 7.28223 54.1912 7.28223C62.0619 7.28223 68.1621 12.6497 68.1621 21.5539C68.1621 30.4581 62.0205 35.8665 54.1912 35.8665C46.362 35.8665 40.179 30.499 40.179 21.5948ZM64.8673 22.2459C64.8673 14.0721 60.1283 9.47824 53.6165 9.47824C47.9303 9.47824 43.4787 13.7477 43.4787 20.9028C43.4787 29.0766 48.2176 33.6705 54.7708 33.6705C60.4985 33.6705 64.8673 29.4418 64.8673 22.2435V22.2459Z" fill="currentColor"/>
<path d="M68.9026 35.2972C71.0456 34.5259 71.2112 33.6297 72.4044 21.7583C72.9402 16.5541 73.4759 13.1784 73.8461 6.83545H75.7431C77.7205 10.9416 84.0692 23.9951 87.0353 29.9729C89.9624 23.9543 96.3086 10.8623 98.0815 6.83545H99.7301C100.307 12.9358 100.595 16.2682 101.172 21.6766C102.492 33.5504 102.779 34.5259 104.881 35.2972V35.3788H97.4215V35.2972C98.7414 34.932 99.1944 34.5644 99.1944 32.2074C99.1944 30.4582 98.907 27.6135 98.4516 22.8154C98.0815 18.3417 97.7917 15.2111 97.5871 13.015C94.3312 19.5214 88.8081 31.1502 86.7479 35.8257H86.4995C84.6049 31.0277 79.0818 19.6415 75.8259 13.0967C75.6189 15.2928 75.373 18.4234 74.9614 22.9764C74.5499 27.4501 74.3015 30.2132 74.3015 31.9623C74.3015 34.5235 74.8372 34.9296 76.2375 35.2972V35.3788H68.9026V35.2972Z" fill="currentColor"/>
<path d="M105.786 35.2972C107.971 34.4851 108.219 33.548 108.219 21.5949C108.219 9.64174 107.971 8.62302 105.786 7.81093V7.77008C117.078 7.77008 119.716 7.72924 120.334 7.48657H120.417L120.583 11.0233H120.5C118.81 10.2112 117.244 9.92525 114.772 9.92525C113.494 9.92525 112.422 9.92525 111.475 9.9661C111.268 11.5927 111.146 14.1539 111.105 18.26H113.248C115.145 18.26 117.409 18.1783 120.005 17.8948L120.13 20.7011C116.504 20.3768 113.701 20.3768 111.475 20.3768C111.351 20.3768 111.226 20.4176 111.063 20.4176V21.5973C111.063 27.6976 111.146 30.9892 111.433 32.9834C112.422 33.0243 113.576 33.0651 114.935 33.0651C117.573 33.0651 119.221 32.6999 121.036 31.8037H121.118L120.953 35.6263H120.87C120.047 35.302 113.781 35.3428 109.083 35.3813H105.786V35.2996V35.2972Z" fill="currentColor"/>
<path d="M123.3 30.581H123.383C125.032 32.6544 126.515 33.5482 128.575 33.5482C131.748 33.5482 133.891 31.6381 133.891 28.7093C133.891 27.0419 132.861 25.2927 130.842 23.2601L127.299 19.7643C125.239 17.7725 124.209 15.8191 124.209 13.8682C124.209 9.72121 127.713 7.36182 132.121 7.36182C133.316 7.36182 134.717 7.60448 135.459 7.76786L136.119 12.4026H136.037C134.553 10.2882 133.316 9.47614 131.668 9.47614C128.782 9.47614 127.012 10.8985 127.012 13.2171C127.012 14.5986 127.917 15.9825 129.69 17.7316L133.482 21.3909C135.708 23.5869 136.821 25.8646 136.821 28.1807C136.821 33.2647 133.195 35.8259 128.249 35.8259C126.89 35.8259 124.786 35.5016 123.88 35.379L123.303 30.581H123.3Z" fill="currentColor"/>
<path d="M137.23 35.2972C138.796 34.6461 139.249 33.9949 144.896 21.4315C148.235 14.0722 149.552 11.1026 150.129 9.72104C149.387 8.8681 148.564 8.29867 147.616 7.81094V7.72925H152.728C152.893 8.54134 153.264 9.51922 158.662 21.4315C164.349 33.9949 164.68 34.4827 166.328 35.2972V35.3789H158.869V35.2972C159.654 34.932 160.148 34.6461 160.148 33.6297C160.148 32.1665 159.159 29.3602 156.48 23.2623C155.039 23.2215 153.473 23.2215 151.7 23.2215C149.681 23.2215 147.95 23.2215 146.425 23.2623C143.871 29.1176 142.962 31.9647 142.962 33.4688C142.962 34.6076 143.498 34.9728 144.241 35.2996V35.3813H137.235V35.2996L137.23 35.2972ZM151.698 21.3522H155.613C155.572 21.2705 155.531 21.1889 155.531 21.1072C153.634 17.001 152.645 14.3581 151.452 11.7561C150.587 13.9521 149.35 16.7584 147.373 21.1072C147.331 21.1889 147.29 21.2705 147.248 21.3114C148.568 21.3522 150.051 21.3522 151.7 21.3522H151.698Z" fill="currentColor"/>
</svg>
