<svg width="126" height="32" viewBox="0 0 126 32" fill="none" xmlns="http://www.w3.org/2000/svg">
<path d="M0 26.2671C1.67274 25.7218 1.82831 25.0566 1.82831 16.0701C1.82831 7.08354 1.67274 6.3576 0 5.81226V5.75146C0.836372 5.78186 1.42568 5.81226 2.88063 5.81226C4.24408 5.81226 4.89378 5.75146 7.03138 5.75146C11.0577 5.75146 12.7304 7.50729 12.7304 10.5022C12.7304 13.9209 10.1591 16.1309 6.7532 16.1309C5.54531 16.1309 4.67783 16.1309 3.9659 16.0701C3.9659 25.0566 4.12146 25.7236 5.79421 26.2671V26.3279H0V26.2671ZM6.47319 14.679C8.92008 14.679 10.4684 13.1968 10.4684 10.867C10.4684 8.38521 9.22937 7.26591 6.44208 7.26591C5.915 7.26591 5.04751 7.3267 4.30448 7.3875C4.0263 8.80897 3.99518 10.7758 3.96407 14.4984C4.98529 14.62 5.82166 14.6808 6.47319 14.6808V14.679Z" fill="currentColor"/>
<path d="M13.6272 26.2671C15.2999 25.7218 15.4555 25.0566 15.4555 16.0701C15.4555 7.08354 15.2999 6.3576 13.6272 5.81226V5.75146C14.4636 5.78186 15.0529 5.81226 16.5078 5.81226C17.9628 5.81226 18.7369 5.75146 21.1234 5.75146C25.1808 5.75146 26.8536 7.4465 26.8536 10.3502C26.8536 12.9822 25.0564 14.89 22.5802 15.4944C28.4659 24.8439 29.3938 25.6306 31.1288 26.0544V26.1152C30.2302 26.2063 29.3627 26.4173 28.217 26.4173C27.3495 26.4173 26.978 25.9328 26.3283 25.0853C24.9649 23.1488 22.798 19.3958 20.4737 15.6749C19.2658 15.6749 18.3672 15.6445 17.5931 15.6141V16.0683C17.5931 25.0549 17.7487 25.7218 19.4214 26.2653V26.3261H13.629V26.2653L13.6272 26.2671ZM20.6275 14.1945C22.981 14.1945 24.5 12.832 24.5 10.7454C24.5 8.35481 23.261 7.26591 20.5048 7.26591C19.7307 7.26591 19.0188 7.26591 17.8731 7.3571C17.6864 8.83936 17.626 10.867 17.5949 14.0139C18.8339 14.1355 19.9174 14.1963 20.6293 14.1963L20.6275 14.1945Z" fill="currentColor"/>
<path d="M30.1956 16.0701C30.1956 9.44376 34.8112 5.41895 40.7262 5.41895C46.6411 5.41895 51.2256 9.41337 51.2256 16.0397C51.2256 22.6661 46.61 26.6909 40.7262 26.6909C34.8423 26.6909 30.1956 22.6965 30.1956 16.0701ZM48.7495 16.5547C48.7495 10.4719 45.188 7.05319 40.2942 7.05319C36.0209 7.05319 32.6754 10.2305 32.6754 15.5552C32.6754 21.638 36.2368 25.0567 41.1617 25.0567C45.4662 25.0567 48.7495 21.9098 48.7495 16.5529V16.5547Z" fill="currentColor"/>
<path d="M51.782 26.2672C53.3925 25.6933 53.517 25.0264 54.4137 16.1918C54.8163 12.3189 55.219 9.80678 55.4972 5.08643H56.9228C58.4089 8.14214 63.1801 17.8564 65.4092 22.305C67.609 17.826 72.3783 8.08314 73.7107 5.08643H74.9497C75.3834 9.62619 75.5994 12.1062 76.0331 16.131C77.025 24.9673 77.241 25.6933 78.8204 26.2672V26.328H73.2147V26.2672C74.2066 25.9955 74.547 25.7219 74.547 23.9678C74.547 22.6662 74.3311 20.5492 73.9888 16.9785C73.7107 13.6492 73.4929 11.3194 73.3391 9.6852C70.8923 14.5271 66.7415 23.1811 65.1932 26.6606H65.0065C63.5827 23.0899 59.4319 14.6165 56.9851 9.74599C56.8295 11.3802 56.6447 13.71 56.3354 17.0983C56.0261 20.4276 55.8394 22.4838 55.8394 23.7855C55.8394 25.6915 56.242 25.9937 57.2943 26.2672V26.328H51.782V26.2672Z" fill="currentColor"/>
<path d="M79.501 26.2672C81.1426 25.6628 81.3293 24.9655 81.3293 16.0701C81.3293 7.17477 81.1426 6.41665 79.501 5.8123V5.78191C87.9873 5.78191 89.9694 5.75151 90.4342 5.57092H90.4964L90.6209 8.20288H90.5587C89.2885 7.59853 88.1118 7.38576 86.2542 7.38576C85.2934 7.38576 84.4881 7.38576 83.7762 7.41615C83.6206 8.62664 83.5291 10.5327 83.498 13.5884H85.1085C86.5342 13.5884 88.2362 13.5276 90.1871 13.3166L90.2805 15.405C87.5554 15.1636 85.4489 15.1636 83.7762 15.1636C83.6828 15.1636 83.5895 15.194 83.4669 15.194V16.0719C83.4669 20.6117 83.5291 23.0613 83.7451 24.5453C84.4881 24.5757 85.3556 24.6061 86.3768 24.6061C88.3588 24.6061 89.5978 24.3343 90.9613 23.6674H91.0235L90.8991 26.5121H90.8368C90.2182 26.2708 85.5093 26.3012 81.979 26.3298H79.501V26.269V26.2672Z" fill="currentColor"/>
<path d="M92.6633 22.7574H92.7256C93.9646 24.3004 95.0791 24.9656 96.6274 24.9656C99.0121 24.9656 100.623 23.5441 100.623 21.3645C100.623 20.1236 99.8484 18.822 98.3313 17.3093L95.6684 14.7078C94.1201 13.2255 93.346 11.7718 93.346 10.32C93.346 7.23386 95.9795 5.47803 99.2921 5.47803C100.191 5.47803 101.243 5.65862 101.801 5.7802L102.297 9.22928H102.235C101.12 7.65583 100.191 7.05148 98.9517 7.05148C96.783 7.05148 95.4525 8.10998 95.4525 9.83542C95.4525 10.8635 96.1333 11.8934 97.4656 13.1951L100.315 15.9182C101.988 17.5525 102.824 19.2475 102.824 20.9712C102.824 24.7546 100.099 26.6606 96.3822 26.6606C95.361 26.6606 93.7797 26.4192 93.0989 26.3281L92.6652 22.7574H92.6633Z" fill="currentColor"/>
<path d="M103.132 26.2671C104.309 25.7826 104.649 25.298 108.893 15.9485C111.402 10.4718 112.392 8.26184 112.826 7.23373C112.268 6.59898 111.649 6.17522 110.937 5.81226V5.75146H114.779C114.903 6.35581 115.181 7.08353 119.239 15.9485C123.512 25.298 123.761 25.661 125 26.2671V26.3279H119.394V26.2671C119.984 25.9954 120.355 25.7826 120.355 25.0262C120.355 23.9373 119.612 21.8489 117.599 17.311C116.516 17.2806 115.339 17.2806 114.006 17.2806C112.489 17.2806 111.188 17.2806 110.042 17.311C108.123 21.6684 107.44 23.7872 107.44 24.9065C107.44 25.754 107.843 26.0257 108.401 26.2689V26.3297H103.135V26.2689L103.132 26.2671ZM114.005 15.8895H116.948C116.916 15.8287 116.885 15.7679 116.885 15.7071C115.46 12.6514 114.717 10.6846 113.82 8.74818C113.17 10.3824 112.24 12.4708 110.754 15.7071C110.723 15.7679 110.692 15.8287 110.661 15.8591C111.653 15.8895 112.767 15.8895 114.006 15.8895H114.005Z" fill="currentColor"/>
</svg>
