<svg width="29" height="28" viewBox="0 0 29 28" fill="none" xmlns="http://www.w3.org/2000/svg">
<path d="M10.7295 13.1277H12.3421L11.5358 10.8359L10.7295 13.1277Z" fill="currentColor"/>
<path d="M14.5 1.07812C6.76769 1.07812 0.5 6.0214 0.5 12.12C0.5 16.0628 3.12096 19.5262 7.0625 21.476C6.84846 22.2153 5.68404 26.2348 5.63827 26.5513C5.63827 26.5513 5.61 26.7883 5.76346 26.8785C5.81481 26.9044 5.8709 26.9196 5.9283 26.923C5.98571 26.9265 6.04321 26.9182 6.09731 26.8987C6.53885 26.8368 11.2127 23.5578 12.0204 22.9936C12.842 23.1077 13.6705 23.164 14.5 23.1619C22.2323 23.1619 28.5 18.2187 28.5 12.12C28.5 6.0214 22.2323 1.07812 14.5 1.07812ZM7.57135 10.4058C7.55385 11.9679 7.58481 13.6107 7.55923 15.1485C7.55115 15.64 7.26846 15.7868 6.88615 15.9268C6.84296 15.9421 6.79644 15.9453 6.75154 15.9362C6.31404 15.85 5.96538 15.6938 5.95462 15.1498C5.92365 13.6134 5.96404 11.9679 5.9425 10.4058C5.57231 10.391 5.04462 10.4207 4.70135 10.4058C4.22481 10.3749 3.89365 10.0719 3.91385 9.62079C3.93404 9.16969 4.175 8.84517 4.70942 8.83709C5.97212 8.81824 7.53635 8.81824 8.79904 8.83709C9.3375 8.84517 9.57712 9.17104 9.59327 9.62079C9.60942 10.0705 9.28365 10.3749 8.80846 10.4058C8.46923 10.4207 7.94288 10.391 7.57135 10.4058ZM14.356 15.8527C14.1945 15.9263 14.0191 15.9644 13.8417 15.9645C13.5052 15.9645 13.2481 15.8298 13.1687 15.6077L12.7648 14.56H10.3067L9.90288 15.6077C9.82481 15.8272 9.56769 15.9645 9.22981 15.9645C9.05281 15.9645 8.87788 15.9264 8.71692 15.8527C8.49346 15.7504 8.27942 15.4676 8.52442 14.7055L10.4615 9.6181C10.5428 9.39401 10.6883 9.19886 10.8798 9.05707C11.0714 8.91527 11.3005 8.83314 11.5385 8.82093C11.7763 8.83444 12.0049 8.91724 12.1963 9.05912C12.3876 9.20101 12.5333 9.39578 12.6154 9.61945L14.5458 14.7041C14.7921 15.4676 14.5781 15.7558 14.356 15.8527ZM18.4375 15.8527H15.8462C15.6455 15.8567 15.4514 15.781 15.3063 15.6422C15.1613 15.5035 15.0771 15.3129 15.0721 15.1121V9.62887C15.0807 9.4159 15.1714 9.2145 15.325 9.06686C15.4787 8.91921 15.6835 8.83676 15.8966 8.83676C16.1097 8.83676 16.3145 8.91921 16.4682 9.06686C16.6219 9.2145 16.7125 9.4159 16.7212 9.62887V14.3755H18.4375C18.5385 14.3695 18.6396 14.3841 18.7348 14.4186C18.8299 14.453 18.917 14.5066 18.9906 14.576C19.0643 14.6453 19.123 14.729 19.1631 14.8219C19.2032 14.9148 19.2239 15.015 19.2239 15.1162C19.2239 15.2174 19.2032 15.3175 19.1631 15.4104C19.123 15.5033 19.0643 15.587 18.9906 15.6564C18.917 15.7257 18.8299 15.7793 18.7348 15.8138C18.6396 15.8482 18.5385 15.8629 18.4375 15.8568V15.8527ZM24.7644 15.2441C24.7434 15.4035 24.6753 15.5529 24.5689 15.6734C24.4625 15.7939 24.3226 15.8799 24.1671 15.9203C24.0115 15.9608 23.8475 15.954 23.6959 15.9007C23.5442 15.8474 23.412 15.75 23.316 15.6211L21.4219 13.1125L21.1419 13.3925V15.1552C21.1419 15.3695 21.0568 15.575 20.9054 15.7265C20.7539 15.878 20.5484 15.9632 20.3342 15.9632C20.12 15.9632 19.9146 15.878 19.7631 15.7265C19.6116 15.575 19.5265 15.3695 19.5265 15.1552V9.63426C19.5265 9.41998 19.6116 9.21448 19.7631 9.06296C19.9146 8.91144 20.12 8.82632 20.3342 8.82632C20.5484 8.82632 20.7539 8.91144 20.9054 9.06296C21.0568 9.21448 21.1419 9.41998 21.1419 9.63426V11.366L23.3954 9.11179C23.4544 9.05344 23.5244 9.00743 23.6014 8.97645C23.6783 8.94547 23.7607 8.93014 23.8437 8.93135C24.0453 8.93665 24.238 9.01628 24.3846 9.15496C24.5312 9.29364 24.6214 9.48159 24.6379 9.68274C24.6451 9.7725 24.6332 9.86277 24.6028 9.94753C24.5723 10.0323 24.5242 10.1096 24.4615 10.1742L22.6173 12.015L24.6056 14.6503C24.7343 14.8212 24.79 15.0362 24.7604 15.2481L24.7644 15.2441Z" fill="currentColor"/>
</svg>
