
<svg width="59" height="69" viewBox="60 60 59 69" fill="none" xmlns="http://www.w3.org/2000/svg" style="background: transparent;">
<g filter="">
<rect x="60" y="60" width="59" height="69" rx="20" fill="#EEEFE9" shape-rendering="crispEdges"/>
<rect x="60.7" y="60.7" width="57.6" height="67.6" rx="19.3" stroke="#9A9A9A" stroke-width="1.4" shape-rendering="crispEdges"/>
<path d="M85.7295 85.1277H87.3421L86.5358 82.8359L85.7295 85.1277Z" fill="#313131"/>
<path d="M89.5 73.0781C81.7677 73.0781 75.5 78.0214 75.5 84.12C75.5 88.0628 78.121 91.5262 82.0625 93.476C81.8485 94.2153 80.684 98.2348 80.6383 98.5513C80.6383 98.5513 80.61 98.7883 80.7635 98.8785C80.8148 98.9044 80.8709 98.9196 80.9283 98.923C80.9857 98.9265 81.0432 98.9182 81.0973 98.8987C81.5388 98.8368 86.2127 95.5578 87.0204 94.9936C87.842 95.1077 88.6705 95.164 89.5 95.1619C97.2323 95.1619 103.5 90.2187 103.5 84.12C103.5 78.0214 97.2323 73.0781 89.5 73.0781ZM82.5713 82.4058C82.5538 83.9679 82.5848 85.6107 82.5592 87.1485C82.5512 87.64 82.2685 87.7868 81.8862 87.9268C81.843 87.9421 81.7964 87.9453 81.7515 87.9362C81.314 87.85 80.9654 87.6938 80.9546 87.1498C80.9237 85.6134 80.964 83.9679 80.9425 82.4058C80.5723 82.391 80.0446 82.4207 79.7013 82.4058C79.2248 82.3749 78.8937 82.0719 78.9138 81.6208C78.934 81.1697 79.175 80.8452 79.7094 80.8371C80.9721 80.8182 82.5363 80.8182 83.799 80.8371C84.3375 80.8452 84.5771 81.171 84.5933 81.6208C84.6094 82.0705 84.2837 82.3749 83.8085 82.4058C83.4692 82.4207 82.9429 82.391 82.5713 82.4058ZM89.356 87.8527C89.1945 87.9263 89.0191 87.9644 88.8417 87.9645C88.5052 87.9645 88.2481 87.8298 88.1687 87.6077L87.7648 86.56H85.3067L84.9029 87.6077C84.8248 87.8272 84.5677 87.9645 84.2298 87.9645C84.0528 87.9645 83.8779 87.9264 83.7169 87.8527C83.4935 87.7504 83.2794 87.4676 83.5244 86.7055L85.4615 81.6181C85.5428 81.394 85.6883 81.1989 85.8798 81.0571C86.0714 80.9153 86.3005 80.8331 86.5385 80.8209C86.7763 80.8344 87.0049 80.9172 87.1963 81.0591C87.3876 81.201 87.5333 81.3958 87.6154 81.6194L89.5458 86.7041C89.7921 87.4676 89.5781 87.7558 89.356 87.8527ZM93.4375 87.8527H90.8462C90.6455 87.8567 90.4514 87.781 90.3063 87.6422C90.1613 87.5035 90.0771 87.3129 90.0721 87.1121V81.6289C90.0807 81.4159 90.1714 81.2145 90.325 81.0669C90.4787 80.9192 90.6835 80.8368 90.8966 80.8368C91.1097 80.8368 91.3145 80.9192 91.4682 81.0669C91.6219 81.2145 91.7125 81.4159 91.7212 81.6289V86.3755H93.4375C93.5385 86.3695 93.6396 86.3841 93.7348 86.4186C93.8299 86.453 93.917 86.5066 93.9906 86.576C94.0643 86.6453 94.123 86.729 94.1631 86.8219C94.2032 86.9148 94.2239 87.015 94.2239 87.1162C94.2239 87.2174 94.2032 87.3175 94.1631 87.4104C94.123 87.5033 94.0643 87.587 93.9906 87.6564C93.917 87.7257 93.8299 87.7793 93.7348 87.8138C93.6396 87.8482 93.5385 87.8629 93.4375 87.8568V87.8527ZM99.7644 87.2441C99.7434 87.4035 99.6753 87.5529 99.5689 87.6734C99.4625 87.7939 99.3226 87.8799 99.1671 87.9203C99.0115 87.9608 98.8475 87.954 98.6959 87.9007C98.5442 87.8474 98.412 87.75 98.316 87.6211L96.4219 85.1125L96.1419 85.3925V87.1552C96.1419 87.3695 96.0568 87.575 95.9054 87.7265C95.7539 87.878 95.5484 87.9632 95.3342 87.9632C95.12 87.9632 94.9146 87.878 94.7631 87.7265C94.6116 87.575 94.5265 87.3695 94.5265 87.1552V81.6343C94.5265 81.42 94.6116 81.2145 94.7631 81.063C94.9146 80.9114 95.12 80.8263 95.3342 80.8263C95.5484 80.8263 95.7539 80.9114 95.9054 81.063C96.0568 81.2145 96.1419 81.42 96.1419 81.6343V83.366L98.3954 81.1118C98.4544 81.0534 98.5244 81.0074 98.6014 80.9765C98.6783 80.9455 98.7607 80.9301 98.8437 80.9313C99.0453 80.9366 99.238 81.0163 99.3846 81.155C99.5312 81.2936 99.6214 81.4816 99.6379 81.6827C99.6451 81.7725 99.6332 81.8628 99.6028 81.9475C99.5723 82.0323 99.5242 82.1096 99.4615 82.1742L97.6173 84.015L99.6056 86.6503C99.7343 86.8212 99.79 87.0362 99.7604 87.2481L99.7644 87.2441Z" fill="#313131"/>
<path d="M80.5209 110.188H72.5716V109.553H80.5209V110.188ZM76.9857 111.965H76.224V109.943H76.9857V111.965ZM79.4857 108.557H73.6068V105.539H79.4857V108.557ZM74.3587 107.941H78.724V106.145H74.3587V107.941ZM79.6322 113.605H73.5873V112.961H79.6322V113.605ZM74.3587 113.186H73.5873V111.105H74.3587V113.186ZM84.0558 105.744C84.5115 105.744 84.9152 105.83 85.2667 106.003C85.6183 106.175 85.8933 106.416 86.0919 106.726C86.2905 107.035 86.3898 107.388 86.3898 107.785C86.3898 108.182 86.2905 108.535 86.0919 108.845C85.8933 109.154 85.6183 109.395 85.2667 109.567C84.9152 109.74 84.5115 109.826 84.0558 109.826C83.6066 109.826 83.2029 109.74 82.8448 109.567C82.4868 109.395 82.2084 109.154 82.0099 108.845C81.8113 108.535 81.712 108.182 81.712 107.785C81.712 107.388 81.8113 107.035 82.0099 106.726C82.2084 106.416 82.4868 106.175 82.8448 106.003C83.2029 105.83 83.6066 105.744 84.0558 105.744ZM84.0558 106.418C83.7498 106.418 83.4764 106.475 83.2355 106.589C82.9946 106.703 82.8058 106.864 82.6691 107.072C82.5323 107.281 82.464 107.518 82.464 107.785C82.464 108.052 82.5323 108.288 82.6691 108.493C82.8058 108.698 82.9946 108.859 83.2355 108.977C83.4764 109.094 83.7498 109.152 84.0558 109.152C84.3618 109.152 84.6352 109.094 84.8761 108.977C85.117 108.859 85.3042 108.698 85.4376 108.493C85.5711 108.288 85.6378 108.052 85.6378 107.785C85.6378 107.518 85.5711 107.281 85.4376 107.072C85.3042 106.864 85.117 106.703 84.8761 106.589C84.6352 106.475 84.3618 106.418 84.0558 106.418ZM88.3331 113.811H87.5714V105.109H88.3331V113.811ZM81.2628 111.242C81.9855 111.242 82.6414 111.236 83.2306 111.223C83.8198 111.21 84.4464 111.182 85.1105 111.14C85.7745 111.097 86.4028 111.034 86.9952 110.949L87.0538 111.516C86.4418 111.626 85.8071 111.709 85.1495 111.765C84.492 111.82 83.8751 111.856 83.2989 111.872C82.7228 111.888 82.0799 111.896 81.3702 111.896L81.2628 111.242ZM96.5653 113.791H95.8036V105.109H96.5653V113.791ZM98.0204 109.328H96.3895V108.693H98.0204V109.328ZM94.9637 107.141H89.7977V106.506H94.9637V107.141ZM92.4247 107.863C92.8348 107.863 93.2011 107.948 93.5233 108.117C93.8456 108.286 94.0979 108.522 94.2802 108.825C94.4624 109.128 94.5536 109.471 94.5536 109.855C94.5536 110.24 94.4624 110.583 94.2802 110.886C94.0979 111.188 93.8456 111.424 93.5233 111.594C93.2011 111.763 92.8348 111.848 92.4247 111.848C92.0145 111.848 91.6483 111.763 91.3261 111.594C91.0038 111.424 90.7515 111.188 90.5692 110.886C90.3869 110.583 90.2958 110.24 90.2958 109.855C90.2958 109.471 90.3869 109.128 90.5692 108.825C90.7515 108.522 91.0038 108.286 91.3261 108.117C91.6483 107.948 92.0145 107.863 92.4247 107.863ZM92.4247 108.508C92.1578 108.508 91.9185 108.565 91.7069 108.679C91.4953 108.793 91.3293 108.952 91.2089 109.157C91.0884 109.362 91.0282 109.595 91.0282 109.855C91.0282 110.116 91.0884 110.347 91.2089 110.549C91.3293 110.751 91.4953 110.909 91.7069 111.022C91.9185 111.136 92.1578 111.193 92.4247 111.193C92.6916 111.193 92.9309 111.136 93.1425 111.022C93.354 110.909 93.5201 110.751 93.6405 110.549C93.7609 110.347 93.8212 110.116 93.8212 109.855C93.8212 109.595 93.7609 109.362 93.6405 109.157C93.5201 108.952 93.354 108.793 93.1425 108.679C92.9309 108.565 92.6916 108.508 92.4247 108.508ZM92.7958 106.799H92.0341V105.217H92.7958V106.799ZM105.657 113.791H104.885V105.109H105.657V113.791ZM103.089 106.057C103.089 106.916 102.947 107.72 102.664 108.469C102.381 109.217 101.936 109.906 101.331 110.534C100.725 111.162 99.9505 111.704 99.0065 112.16L98.5866 111.535C99.4264 111.138 100.123 110.671 100.676 110.134C101.23 109.597 101.643 108.996 101.917 108.332C102.19 107.668 102.327 106.949 102.327 106.174V106.057H103.089ZM102.639 106.682H98.987V106.057H102.639V106.682Z" fill="#313131"/>
</g>
<defs>
<filter id="filter0_d_1004_7782" x="0" y="0" width="179" height="189" filterUnits="userSpaceOnUse" color-interpolation-filters="sRGB">
<feFlood flood-opacity="0" result="BackgroundImageFix"/>
<feColorMatrix in="SourceAlpha" type="matrix" values="0 0 0 0 0 0 0 0 0 0 0 0 0 0 0 0 0 0 127 0" result="hardAlpha"/>
<feOffset/>
<feGaussianBlur stdDeviation="30"/>
<feComposite in2="hardAlpha" operator="out"/>
<feColorMatrix type="matrix" values="0 0 0 0 0 0 0 0 0 0 0 0 0 0 0 0 0 0 0.1 0"/>
<feBlend mode="normal" in2="BackgroundImageFix" result="effect1_dropShadow_1004_7782"/>
<feBlend mode="normal" in="SourceGraphic" in2="effect1_dropShadow_1004_7782" result="shape"/>
</filter>
</defs>
</svg>